#!OML:ASF H:\Terrain\Patient Classification 1\PLAYGROUND\JustinFriday\JustinFriday.ASF
:FULLY-SPECIFIED
:DEGREES
771
root -7.94007 16.7185 10.4003 -19.1395 -60.6823 -7.44913
lowerback 13.6187 -2.32941 -4.42939
upperback -5.78898 -3.98152 0.388742
thorax -13.8037 -1.4362 3.92949
lowerneck 2.67842 0.492449 2.2673
upperneck 21.5818 -1.77706 9.15924
head 6.16871 -0.35933 2.44024
rclavicle 1.15295e-014 4.77083e-015
rhumerus 62.2833 -5.22217 -60.503
rradius 76.5083
rwrist -339.971
rhand 1.00428 -19.6215
rfingers 7.12502
rthumb 26.5519 -47.7805
lclavicle 1.15295e-014 4.77083e-015
lhumerus 50.3737 -4.90157 75.3344
lradius 85.4718
lwrist -1.2959
lhand -9.64135 -5.40937
lfingers 7.12502
lthumb 16.329 23.9232
rfemur -11.2372 -2.07597 3.64568
rtibia 111.063
rfoot -14.7912 -7.58754
rtoes 8.62298
lfemur 13.6398 26.9527 14.5516
ltibia 109.322
lfoot -1.52792 -14.6989
ltoes 0.677159
772
root -8.02355 16.7484 10.4033 -19.5058 -59.5818 -7.38271
lowerback 13.6938 -2.61197 -5.19214
upperback -5.74178 -4.45826 0.814127
thorax -13.6613 -1.57084 4.9479
lowerneck 2.80667 0.736597 2.4382
upperneck 21.7136 -1.24721 8.18894
head 6.16572 -0.143363 2.12369
rclavicle -1.08835e-014 -3.41413e-014
rhumerus 63.076 -4.19684 -61.3186
rradius 76.4346
rwrist -338.846
rhand 1.15605 -19.2669
rfingers 7.12502
rthumb 26.6972 -47.4038
lclavicle -1.08835e-014 -3.41413e-014
lhumerus 49.9027 -4.00204 75.8864
lradius 85.8157
lwrist -1.29611
lhand -9.3719 -5.52063
lfingers 7.12502
lthumb 16.5884 23.7904
rfemur -11.2847 -1.39778 3.60621
rtibia 110.763
rfoot -14.6062 -8.24511
rtoes 6.29913
lfemur 14.2001 27.0359 14.4517
ltibia 108.873
lfoot -1.09386 -14.4862
ltoes 1.18812
773
root -8.10541 16.7853 10.4117 -19.5344 -58.5401 -7.54249
lowerback 13.7015 -2.86238 -5.54357
upperback -5.74682 -4.82975 1.09637
thorax -13.5766 -1.7005 5.54752
lowerneck 2.87115 0.896506 2.04699
upperneck 21.7218 -0.963424 8.02434
head 6.14353 -0.0420386 2.14972
rclavicle 9.58888e-014 -9.88954e-015
rhumerus 63.5431 -3.5703 -61.5782
rradius 76.6343
rwrist -338.18
rhand 1.0246 -19.2
rfingers 7.12502
rthumb 26.5714 -47.3561
lclavicle 9.58888e-014 -9.88954e-015
lhumerus 49.5343 -3.47259 76.3654
lradius 86.0777
lwrist -1.19968
lhand -9.04406 -5.70797
lfingers 7.12502
lthumb 16.904 23.5764
rfemur -11.4805 -0.804732 3.58992
rtibia 110.505
rfoot -14.545 -8.41736
rtoes 6.32335
lfemur 14.6204 27.206 14.4375
ltibia 108.446
lfoot -0.619157 -14.2228
ltoes 2.6194
774
root -8.18155 16.8189 10.4164 -20.3325 -57.4226 -6.77463
lowerback 13.5763 -2.79342 -5.07512
upperback -5.7077 -4.75158 0.171158
thorax -13.5805 -1.76005 4.22398
lowerneck 2.877 0.713785 2.42349
upperneck 21.5243 -1.35924 8.79445
head 6.0992 -0.162809 2.31456
rclavicle 5.4964e-014 -2.70347e-014
rhumerus 62.8577 -4.63463 -61.486
rradius 77.1719
rwrist -338.184
rhand 0.330388 -19.3907
rfingers 7.12502
rthumb 25.9068 -47.6456
lclavicle 5.4964e-014 -2.70347e-014
lhumerus 49.7048 -4.74195 76.1266
lradius 86.2288
lwrist -1.1122
lhand -8.8959 -5.79514
lfingers 7.12502
lthumb 17.0466 23.4769
rfemur -11.8626 -0.240358 2.82588
rtibia 110.372
rfoot -14.1631 -8.45486
rtoes 7.38327
lfemur 14.8817 27.4082 13.5576
ltibia 108.043
lfoot -0.371241 -13.9151
ltoes 2.33381
775
root -8.25953 16.8563 10.4183 -20.6595 -56.5493 -6.64344
lowerback 13.5044 -2.86076 -5.18044
upperback -5.57914 -4.84358 0.222638
thorax -13.3629 -1.80276 4.34918
lowerneck 2.70411 0.891495 1.90127
upperneck 21.417 -1.11587 9.05174
head 6.08061 -0.0568893 2.49588
rclavicle -1.2424e-014 -1.21259e-014
rhumerus 63.0198 -4.75547 -60.1446
rradius 77.9945
rwrist -338.875
rhand -0.239401 -19.529
rfingers 7.12502
rthumb 25.361 -47.8625
lclavicle -1.2424e-014 -1.21259e-014
lhumerus 49.5552 -4.63804 76.7409
lradius 86.5046
lwrist -1.31269
lhand -8.84511 -5.89363
lfingers 7.12502
lthumb 17.0955 23.3742
rfemur -12.1808 0.623091 2.71512
rtibia 110.19
rfoot -13.6947 -8.78543
rtoes 5.7858
lfemur 15.35 27.5814 13.3397
ltibia 107.635
lfoot -0.734186 -14.291
ltoes -0.509986
776
root -8.3418 16.8985 10.4204 -20.7251 -55.5468 -6.72668
lowerback 13.444 -3.0775 -5.96129
upperback -5.50709 -5.17023 1.08793
thorax -13.0607 -1.85727 5.81127
lowerneck 2.37288 1.23086 0.162645
upperneck 21.451 -0.53332 8.96132
head 6.10482 0.113523 2.79047
rclavicle 1.08089e-013 5.33737e-014
rhumerus 64.3356 -3.74132 -60.0079
rradius 78.1234
rwrist -338.317
rhand 0.204524 -18.3563
rfingers 7.12502
rthumb 25.7863 -46.6287
lclavicle 1.08089e-013 5.33737e-014
lhumerus 49.1177 -3.37325 78.12
lradius 86.7782
lwrist -1.5827
lhand -8.85265 -6.40747
lfingers 7.12502
lthumb 17.0883 22.861
rfemur -12.4838 1.28098 2.54518
rtibia 110.035
rfoot -13.5134 -8.81769
rtoes 3.56422
lfemur 15.8244 27.7597 13.314
ltibia 107.188
lfoot -1.08052 -14.596
ltoes -2.59515
777
root -8.42053 16.9373 10.425 -21.0152 -54.0639 -6.45664
lowerback 13.5336 -3.13917 -5.80639
upperback -5.66985 -5.26739 0.846033
thorax -13.3291 -1.91081 5.49495
lowerneck 2.4759 1.11292 -0.831134
upperneck 21.3144 -0.7484 9.58513
head 6.04418 -0.0288184 3.15075
rclavicle 1.08213e-013 1.07344e-014
rhumerus 64.102 -4.01028 -60.0173
rradius 78.5325
rwrist -337.5
rhand 1.14824 -17.4395
rfingers 7.12502
rthumb 26.6897 -45.5776
lclavicle 1.08213e-013 1.07344e-014
lhumerus 48.8334 -3.95731 78.5728
lradius 86.9305
lwrist -1.80904
lhand -9.26692 -6.26056
lfingers 7.12502
lthumb 16.6895 23.042
rfemur -12.7145 1.42549 1.62231
rtibia 109.949
rfoot -13.639 -8.3491
rtoes 5.81586
lfemur 15.9097 27.7788 12.6792
ltibia 106.823
lfoot -0.87032 -14.2566
ltoes -2.54636
778
root -8.49513 16.9805 10.4313 -20.7029 -52.6764 -6.8941
lowerback 13.4979 -3.538 -6.64015
upperback -5.71978 -5.87414 1.60719
thorax -13.1283 -2.09204 6.94347
lowerneck 2.82396 1.45599 -1.96069
upperneck 20.9507 -0.147489 9.47701
head 5.82369 0.166282 3.32543
rclavicle 9.80008e-014 2.72335e-014
rhumerus 64.7913 -2.88571 -59.6753
rradius 79.139
rwrist -336.783
rhand 1.3203 -16.862
rfingers 7.12502
rthumb 26.8544 -44.9749
lclavicle 9.80008e-014 2.72335e-014
lhumerus 48.358 -2.93187 79.1461
lradius 87.3645
lwrist -2.35543
lhand -9.91001 -4.92922
lfingers 7.12502
lthumb 16.0703 24.4244
rfemur -12.9221 1.30291 1.07489
rtibia 109.787
rfoot -13.8041 -7.62307
rtoes 9.62046
lfemur 15.7036 27.6412 12.5359
ltibia 106.61
lfoot -0.532045 -14.0925
ltoes -1.96082
779
root -8.57413 17.0351 10.4435 -20.4628 -51.508 -7.51855
lowerback 13.5134 -3.77998 -6.71102
upperback -5.58617 -6.15932 2.02677
thorax -12.8803 -2.21788 7.50417
lowerneck 2.65953 1.71937 -2.76167
upperneck 20.9578 0.278271 9.43584
head 5.81917 0.325545 3.46776
rclavicle -2.40529e-014 1.03368e-014
rhumerus 64.9835 -2.38676 -59.0818
rradius 80.0971
rwrist -336.615
rhand -0.234909 -16.9386
rfingers 7.12502
rthumb 25.3654 -45.2715
lclavicle -2.40529e-014 1.03368e-014
lhumerus 48.2107 -2.32602 79.6453
lradius 87.5962
lwrist -2.36027
lhand -10.0788 -4.59711
lfingers 7.12502
lthumb 15.9078 24.7695
rfemur -12.8608 1.01844 0.572101
rtibia 109.495
rfoot -13.8702 -6.99957
rtoes 7.99232
lfemur 15.9478 27.4476 12.7694
ltibia 106.246
lfoot -0.519976 -14.1588
ltoes -3.25523
780
root -8.655 17.085 10.4588 -20.4514 -50.2838 -7.98934
lowerback 13.5045 -3.97504 -6.64883
upperback -5.37676 -6.36209 2.36103
thorax -12.5621 -2.32972 7.86656
lowerneck 2.51959 1.93593 -3.71155
upperneck 20.7538 0.650384 9.49598
head 5.74232 0.452781 3.66159
rclavicle -4.96962e-014 -1.15295e-014
rhumerus 65.2716 -2.26653 -57.8423
rradius 81.1975
rwrist -336.969
rhand -1.71123 -16.88
rfingers 7.12502
rthumb 23.9503 -45.4062
lclavicle -4.96962e-014 -1.15295e-014
lhumerus 48.3148 -1.72181 80.5284
lradius 87.4056
lwrist -1.90655
lhand -9.51899 -5.7127
lfingers 7.12502
lthumb 16.4468 23.6101
rfemur -12.6751 1.09666 0.220697
rtibia 109.246
rfoot -13.2201 -7.15823
rtoes 7.18734
lfemur 16.4194 27.1392 12.9583
ltibia 105.845
lfoot -0.631757 -14.2393
ltoes -5.60216
781
root -8.73342 17.1082 10.456 -20.74 -48.8509 -7.88765
lowerback 13.5018 -4.13831 -6.88777
upperback -5.43277 -6.61665 2.4829
thorax -12.5419 -2.42421 8.19289
lowerneck 3.20294 2.13302 -4.82961
upperneck 20.0093 0.942375 9.94614
head 5.35178 0.525771 3.98435
rclavicle 3.18055e-014 7.95139e-015
rhumerus 65.4434 -2.14079 -56.9039
rradius 82.0868
rwrist -337.738
rhand -2.52991 -16.5149
rfingers 7.12502
rthumb 23.1651 -45.142
lclavicle 3.18055e-014 7.95139e-015
lhumerus 48.0203 -1.57753 81.1571
lradius 87.4429
lwrist -1.71129
lhand -8.68822 -6.4441
lfingers 7.12502
lthumb 17.2465 22.8106
rfemur -12.6577 1.93727 0.0618135
rtibia 109.197
rfoot -12.9486 -7.7292
rtoes 5.9787
lfemur 16.421 26.801 12.63
ltibia 105.783
lfoot -0.516917 -14.1944
ltoes -6.21388
782
root -8.81668 17.1483 10.4603 -21.8641 -46.9992 -6.65834
lowerback 13.591 -4.24593 -8.13894
upperback -5.59666 -7.02624 2.3873
thorax -12.5928 -2.50767 8.89301
lowerneck 3.93662 2.36353 -5.89447
upperneck 19.4419 1.23074 10.4515
head 5.00692 0.603474 4.31573
rclavicle 1.82882e-014 -4.13472e-014
rhumerus 65.2442 -1.76577 -56.3824
rradius 83.4583
rwrist -338.821
rhand -3.19431 -16.4043
rfingers 7.12502
rthumb 22.5275 -45.1101
lclavicle 1.82882e-014 -4.13472e-014
lhumerus 47.4524 -1.50629 81.1653
lradius 88.0833
lwrist -1.20834
lhand -8.18951 -5.75757
lfingers 7.12502
lthumb 17.7265 23.4544
rfemur -12.5077 1.44482 -2.23091
rtibia 109.111
rfoot -12.8349 -7.05291
rtoes 3.0405
lfemur 16.3732 26.5076 11.1756
ltibia 105.633
lfoot -0.193262 -13.7169
ltoes -5.27237
783
root -8.89021 17.1877 10.4652 -22.2411 -45.2916 -6.18555
lowerback 13.6144 -4.61399 -9.92796
upperback -5.70234 -7.78795 3.22535
thorax -12.25 -2.70526 11.004
lowerneck 4.08611 2.91631 -7.22875
upperneck 19.3032 2.09252 10.1039
head 4.85551 0.921901 4.4459
rclavicle 2.10712e-014 -1.66979e-014
rhumerus 65.9083 -0.425291 -55.4036
rradius 85.3843
rwrist -339.999
rhand -4.08593 -16.8803
rfingers 7.12502
rthumb 21.6714 -45.6874
lclavicle 2.10712e-014 -1.66979e-014
lhumerus 47.1029 0.172085 82.3873
lradius 87.8789
lwrist -1.33283
lhand -8.50521 -5.04719
lfingers 7.12502
lthumb 17.4227 24.192
rfemur -12.6061 1.06059 -3.83634
rtibia 109.166
rfoot -12.7738 -6.34924
rtoes 2.9309
lfemur 16.1209 26.3107 10.3633
ltibia 105.607
lfoot -0.372569 -13.3992
ltoes -6.798
